<svg xmlns="http://www.w3.org/2000/svg" version="1.1" xmlns:xlink="http://www.w3.org/1999/xlink" width="32" height="32"><svg xmlns="http://www.w3.org/2000/svg" version="1.1" xmlns:xlink="http://www.w3.org/1999/xlink" width="32" height="32"><svg width="32" height="32" viewBox="0 0 32 32" fill="none" xmlns="http://www.w3.org/2000/svg">
<rect width="32" height="32" rx="8" fill="url(#paint0_linear_28_6)"></rect>
<path d="M14.5426 10.1676L13.5117 10.5531C13.4297 10.5832 13.375 10.6625 13.375 10.75C13.375 10.8375 13.4297 10.9168 13.5117 10.9469L14.5426 11.3324L14.9281 12.3633C14.9582 12.4453 15.0375 12.5 15.125 12.5C15.2125 12.5 15.2918 12.4453 15.3219 12.3633L15.7074 11.3324L16.7383 10.9469C16.8203 10.9168 16.875 10.8375 16.875 10.75C16.875 10.6625 16.8203 10.5832 16.7383 10.5531L15.7074 10.1676L15.3219 9.13672C15.2918 9.05469 15.2125 9 15.125 9C15.0375 9 14.9582 9.05469 14.9281 9.13672L14.5426 10.1676ZM9.38555 19.8117C8.87422 20.323 8.87422 21.1543 9.38555 21.6684L10.3316 22.6145C10.843 23.1258 11.6742 23.1258 12.1883 22.6145L22.6145 12.1855C23.1258 11.6742 23.1258 10.843 22.6145 10.3289L21.6684 9.38555C21.157 8.87422 20.3258 8.87422 19.8117 9.38555L9.38555 19.8117ZM21.3758 11.2586L18.5047 14.1297L17.8676 13.4926L20.7387 10.6215L21.3758 11.2586ZM8.33008 12.2047C8.20703 12.2512 8.125 12.3688 8.125 12.5C8.125 12.6312 8.20703 12.7488 8.33008 12.7953L9.875 13.375L10.4547 14.9199C10.5012 15.043 10.6188 15.125 10.75 15.125Cnan nan 10.9988 15.043 11.0453 14.9199L11.625 13.375L13.1699 12.7953C13.293 12.7488 13.375 12.6312 13.375 12.5Cnan nan 13.293 12.2512 13.1699 12.2047L11.625 11.625L11.0453 10.0801C10.9988 9.95703 10.8812 9.875 10.75 9.875C10.6188 9.875 10.5012 9.95703 10.4547 10.0801L9.875 11.625L8.33008 12.2047ZM17.9551 19.2047C17.832 19.2512 17.75 19.3687 17.75 19.5Cnan nan 17.832 19.7488 17.9551 19.7953L19.5 20.375L20.0797 21.9199C20.1262 22.043 20.2437 22.125 20.375 22.125Cnan nan 20.6238 22.043 20.6703 21.9199L21.25 20.375L22.7949 19.7953C22.918 19.7488 23 19.6313 23 19.5Cnan nan 22.918 19.2512 22.7949 19.2047L21.25 18.625L20.6703 17.0801C20.6238 16.957 20.5063 16.875 20.375 16.875Cnan nan 20.1262 16.957 20.0797 17.0801L19.5 18.625L17.9551 19.2047Z" fill="white"></path>
<defs>
<linearGradient id="paint0_linear_28_6" x1="0" y1="0" x2="32" y2="32" gradientUnits="userSpaceOnUse">
<stop stop-color="#7C3AED"></stop>
<stop offset="1" stop-color="#4F46E5"></stop>
</linearGradient>
</defs>
</svg></svg><style>@media (prefers-color-scheme: light) { :root { filter: none; } }
@media (prefers-color-scheme: dark) { :root { filter: none; } }
</style></svg>